<svg xmlns="http://www.w3.org/2000/svg" viewBox="0 0 400 300">
  <rect width="400" height="300" fill="#2c3e50"/>
  <!-- Moon -->
  <circle cx="80" cy="60" r="30" fill="#f0e68c" opacity="0.8"/>
  <!-- Branch -->
  <rect x="140" y="180" width="120" height="15" rx="7" fill="#8b4513"/>
  <rect x="110" y="195" width="50" height="10" rx="5" fill="#8b4513" transform="rotate(-30 135 200)"/>
  <!-- Owl body -->
  <ellipse cx="200" cy="140" rx="45" ry="55" fill="#d2691e"/>
  <!-- Owl wings -->
  <ellipse cx="160" cy="150" rx="20" ry="40" fill="#cd853f" transform="rotate(-15 160 150)"/>
  <ellipse cx="240" cy="150" rx="20" ry="40" fill="#cd853f" transform="rotate(15 240 150)"/>
  <!-- Owl head -->
  <circle cx="200" cy="110" r="35" fill="#d2691e"/>
  <!-- Eyes -->
  <circle cx="185" cy="110" r="15" fill="#ffffff"/>
  <circle cx="215" cy="110" r="15" fill="#ffffff"/>
  <circle cx="185" cy="110" r="8" fill="#0a0e27"/>
  <circle cx="215" cy="110" r="8" fill="#0a0e27"/>
  <!-- Beak -->
  <path d="M 200 120 L 195 130 L 205 130 Z" fill="#ff8c00"/>
  <!-- Ear tufts -->
  <path d="M 175 85 L 170 75 L 180 80" fill="#d2691e"/>
  <path d="M 225 85 L 230 75 L 220 80" fill="#d2691e"/>
  <!-- Feather pattern -->
  <circle cx="190" cy="155" r="4" fill="#8b4513" opacity="0.5"/>
  <circle cx="200" cy="160" r="4" fill="#8b4513" opacity="0.5"/>
  <circle cx="210" cy="155" r="4" fill="#8b4513" opacity="0.5"/>
  <!-- Stars -->
  <circle cx="300" cy="70" r="2" fill="#ffffff"/>
  <circle cx="320" cy="100" r="2.5" fill="#f0e68c"/>
  <circle cx="280" cy="50" r="2" fill="#ffffff"/>
  <text x="200" y="285" font-family="Arial, sans-serif" font-size="22" fill="#ffffff" text-anchor="middle" font-weight="bold">Owl</text>
</svg>
