<svg xmlns="http://www.w3.org/2000/svg" viewBox="0 0 400 300">
  <defs>
    <radialGradient id="grad5" cx="50%" cy="50%" r="50%">
      <stop offset="0%" style="stop-color:#6b46c1;stop-opacity:1" />
      <stop offset="100%" style="stop-color:#0a0e27;stop-opacity:1" />
    </radialGradient>
  </defs>
  <rect width="400" height="300" fill="url(#grad5)"/>
  <!-- Jar/container for stars -->
  <rect x="140" y="180" width="120" height="80" rx="10" fill="#ffffff" opacity="0.3" stroke="#06b6d4" stroke-width="3"/>
  <!-- Person collecting stars -->
  <circle cx="200" cy="130" r="25" fill="#ec4899"/>
  <rect x="185" y="155" width="30" height="40" fill="#ec4899"/>
  <!-- Stars being collected -->
  <path d="M 200,60 L 205,75 L 220,75 L 210,85 L 215,100 L 200,90 L 185,100 L 190,85 L 180,75 L 195,75 Z" fill="#ffcc00"/>
  <path d="M 280,80 L 283,90 L 293,90 L 286,96 L 289,106 L 280,100 L 271,106 L 274,96 L 267,90 L 277,90 Z" fill="#ffffff"/>
  <path d="M 120,90 L 123,100 L 133,100 L 126,106 L 129,116 L 120,110 L 111,116 L 114,106 L 107,100 L 117,100 Z" fill="#06b6d4"/>
  <!-- Stars in jar -->
  <circle cx="170" cy="220" r="3" fill="#ffcc00"/>
  <circle cx="190" cy="230" r="2.5" fill="#ffffff"/>
  <circle cx="210" cy="225" r="3" fill="#06b6d4"/>
  <circle cx="230" cy="235" r="2" fill="#ffcc00"/>
  <text x="200" y="290" font-family="Arial, sans-serif" font-size="20" fill="#ffffff" text-anchor="middle" font-weight="bold">Star Collector</text>
</svg>
